<svg width="166" height="23" viewBox="0 0 166 23" fill="none" xmlns="http://www.w3.org/2000/svg">
<path d="M111.552 13.128C111.552 12.664 111.664 12.26 111.888 11.916C112.12 11.572 112.444 11.308 112.86 11.124C113.276 10.932 113.764 10.836 114.324 10.836C114.812 10.836 115.24 10.924 115.608 11.1C115.984 11.268 116.284 11.516 116.508 11.844C116.732 12.172 116.872 12.564 116.928 13.02H116.328C116.272 12.492 116.068 12.084 115.716 11.796C115.372 11.508 114.908 11.364 114.324 11.364C113.668 11.364 113.136 11.524 112.728 11.844C112.328 12.164 112.128 12.592 112.128 13.128C112.128 13.536 112.248 13.876 112.488 14.148C112.736 14.412 113.104 14.608 113.592 14.736L115.104 15.12C115.744 15.28 116.232 15.548 116.568 15.924C116.904 16.3 117.072 16.76 117.072 17.304C117.072 17.776 116.956 18.188 116.724 18.54C116.492 18.892 116.164 19.164 115.74 19.356C115.324 19.548 114.832 19.644 114.264 19.644C113.736 19.644 113.268 19.556 112.86 19.38C112.452 19.204 112.128 18.956 111.888 18.636C111.648 18.308 111.504 17.924 111.456 17.484H112.068C112.092 17.972 112.304 18.364 112.704 18.66C113.112 18.956 113.632 19.104 114.264 19.104C114.944 19.104 115.484 18.944 115.884 18.624C116.292 18.296 116.496 17.86 116.496 17.316C116.496 16.892 116.372 16.544 116.124 16.272C115.876 15.992 115.5 15.788 114.996 15.66L113.52 15.288C112.88 15.128 112.392 14.868 112.056 14.508C111.72 14.14 111.552 13.68 111.552 13.128ZM123.624 11.22V19.5H123.048V11.22H123.624ZM120.372 11.508V10.98H126.3V11.508H120.372ZM130.196 16.608V10.98H130.772V16.596C130.772 17.396 130.984 18.012 131.408 18.444C131.84 18.868 132.456 19.08 133.256 19.08C134.04 19.08 134.644 18.868 135.068 18.444C135.492 18.012 135.704 17.396 135.704 16.596V10.98H136.28V16.608C136.28 17.24 136.16 17.784 135.92 18.24C135.68 18.688 135.332 19.036 134.876 19.284C134.428 19.524 133.888 19.644 133.256 19.644C132.616 19.644 132.068 19.524 131.612 19.284C131.156 19.044 130.804 18.696 130.556 18.24C130.316 17.784 130.196 17.24 130.196 16.608ZM143.525 19.5H141.137V10.98H143.525C144.389 10.98 145.141 11.16 145.781 11.52C146.429 11.872 146.929 12.368 147.281 13.008C147.641 13.64 147.821 14.384 147.821 15.24C147.821 16.088 147.641 16.832 147.281 17.472C146.929 18.112 146.429 18.612 145.781 18.972C145.141 19.324 144.389 19.5 143.525 19.5ZM141.713 11.268V19.212L141.449 18.972H143.525C144.277 18.972 144.929 18.82 145.481 18.516C146.033 18.204 146.461 17.768 146.765 17.208C147.077 16.648 147.233 15.992 147.233 15.24C147.233 14.48 147.081 13.82 146.777 13.26C146.473 12.7 146.045 12.268 145.493 11.964C144.941 11.66 144.285 11.508 143.525 11.508H141.449L141.713 11.268ZM152.782 10.98V19.5H152.206V10.98H152.782ZM165.208 15.24C165.208 16.104 165.036 16.868 164.692 17.532C164.348 18.188 163.872 18.704 163.264 19.08C162.664 19.456 161.968 19.644 161.176 19.644C160.392 19.644 159.696 19.456 159.088 19.08C158.48 18.704 158.004 18.188 157.66 17.532C157.324 16.868 157.156 16.104 157.156 15.24C157.156 14.376 157.328 13.616 157.672 12.96C158.016 12.296 158.488 11.776 159.088 11.4C159.696 11.024 160.392 10.836 161.176 10.836C161.968 10.836 162.664 11.024 163.264 11.4C163.872 11.776 164.348 12.296 164.692 12.96C165.036 13.616 165.208 14.376 165.208 15.24ZM164.62 15.24C164.62 14.48 164.472 13.812 164.176 13.236C163.888 12.66 163.484 12.208 162.964 11.88C162.452 11.552 161.856 11.388 161.176 11.388C160.504 11.388 159.908 11.552 159.388 11.88C158.876 12.208 158.472 12.66 158.176 13.236C157.888 13.812 157.744 14.48 157.744 15.24C157.744 15.992 157.888 16.66 158.176 17.244C158.472 17.82 158.876 18.272 159.388 18.6C159.908 18.928 160.504 19.092 161.176 19.092C161.856 19.092 162.452 18.928 162.964 18.6C163.484 18.272 163.888 17.82 164.176 17.244C164.472 16.66 164.62 15.992 164.62 15.24Z" fill="#B5B5B5"/>
<path d="M1 1L10 1C14.9706 1 19 5.02944 19 10C19 14.9706 14.9706 19 10 19C5.02944 19 1 14.9706 1 10L1 1Z" stroke="#B5B5B5" stroke-width="2"/>
<path d="M59 6.91504L64.8085 6.91504C68.0165 6.91504 70.617 9.5156 70.617 12.7235C70.617 15.9315 68.0165 18.5321 64.8085 18.5321C61.6006 18.5321 59 15.9315 59 12.7235V6.91504Z" stroke="#B5B5B5" stroke-width="2"/>
<path d="M75 6.91504L80.8085 6.91504C84.0165 6.91504 86.617 9.5156 86.617 12.7235C86.617 15.9315 84.0165 18.5321 80.8085 18.5321C77.6006 18.5321 75 15.9315 75 12.7235V6.91504Z" stroke="#B5B5B5" stroke-width="2"/>
<path d="M102 18.532L96.1915 18.532C92.9835 18.532 90.383 15.9314 90.383 12.7235C90.383 9.51552 92.9835 6.91496 96.1915 6.91496C99.3994 6.91496 102 9.51552 102 12.7235L102 18.532Z" stroke="#B5B5B5" stroke-width="2"/>
<path d="M55.0234 18.532L49.2149 18.532C46.007 18.532 43.4064 15.9314 43.4064 12.7235C43.4064 9.51552 46.007 6.91496 49.2149 6.91496C52.4229 6.91496 55.0234 9.51552 55.0234 12.7235L55.0234 18.532Z" stroke="#B5B5B5" stroke-width="2"/>
<rect x="38" width="2" height="20" fill="#B5B5B5"/>
<rect x="58" width="2" height="11" fill="#B5B5B5"/>
<rect x="74" width="2" height="11" fill="#B5B5B5"/>
</svg>
